<?xml version="1.0" standalone="no"?>
<!DOCTYPE svg PUBLIC "-//W3C//DTD SVG 20010904//EN"
 "http://www.w3.org/TR/2001/REC-SVG-20010904/DTD/svg10.dtd">
<svg version="1.0" xmlns="http://www.w3.org/2000/svg"
 width="494.000000pt" height="492.000000pt" viewBox="0 0 494.000000 492.000000"
 preserveAspectRatio="xMidYMid meet">

<g transform="translate(0.000000,492.000000) scale(0.100000,-0.100000)"
fill="#000000" stroke="none">
<path d="M0 2460 l0 -2460 2470 0 2470 0 0 2460 0 2460 -2470 0 -2470 0 0
-2460z m2815 2055 c237 -42 385 -91 602 -195 429 -209 778 -556 988 -985 106
-217 174 -433 207 -660 16 -114 16 -492 0 -599 -33 -215 -103 -435 -202 -641
-468 -970 -1593 -1444 -2615 -1104 -153 51 -396 170 -519 253 -339 230 -590
520 -759 875 -206 434 -261 916 -158 1386 101 460 353 877 715 1184 194 164
491 331 721 404 127 40 316 83 425 97 115 14 489 5 595 -15z"/>
<path d="M1387 3299 c-44 -23 -57 -51 -57 -119 0 -40 5 -56 28 -80 24 -26 35
-31 96 -35 78 -6 121 -26 152 -72 24 -36 55 -157 89 -353 57 -326 67 -380 85
-470 10 -52 22 -112 25 -133 l6 -37 761 2 760 3 13 35 c7 19 41 125 75 235 88
288 139 450 165 530 12 39 21 73 18 78 -2 4 -369 7 -815 7 -885 0 -855 -2
-893 57 -10 14 -29 85 -44 157 -32 150 -40 170 -84 196 -28 18 -51 20 -187 20
-135 -1 -160 -3 -193 -21z"/>
<path d="M1970 1844 c-167 -72 -171 -302 -7 -386 32 -16 54 -19 103 -16 78 5
136 41 172 108 20 38 23 55 19 113 -4 56 -10 76 -35 110 -57 79 -164 109 -252
71z"/>
<path d="M3075 1841 c-128 -58 -162 -243 -63 -338 55 -51 93 -66 164 -61 78 5
136 41 172 108 20 38 23 56 20 112 -3 56 -9 74 -35 110 -58 81 -168 110 -258
69z"/>
</g>
</svg>
